<?xml version="1.0" standalone="no"?>
<!DOCTYPE svg PUBLIC "-//W3C//DTD SVG 20010904//EN"
 "http://www.w3.org/TR/2001/REC-SVG-20010904/DTD/svg10.dtd">
<svg version="1.0" xmlns="http://www.w3.org/2000/svg"
 width="512.000000pt" height="512.000000pt" viewBox="0 0 512.000000 512.000000"
 preserveAspectRatio="xMidYMid meet">
<metadata>
Created by potrace 1.14, written by Peter Selinger 2001-2017
</metadata>
<g transform="translate(0.000000,512.000000) scale(0.100000,-0.100000)"
fill="#000000" stroke="none">
<path d="M575 5105 c-151 -29 -259 -86 -370 -199 -61 -62 -90 -101 -123 -166
-84 -169 -77 31 -77 -2180 0 -2210 -7 -2010 77 -2180 60 -120 178 -238 298
-298 170 -84 -30 -77 2180 -77 2210 0 2010 -7 2180 77 120 60 238 178 298 298
84 170 77 -30 77 2180 0 2210 7 2010 -77 2180 -60 120 -178 238 -298 298 -170
84 36 77 -2150 79 -1579 1 -1958 -1 -2015 -12z m3847 -453 c103 -42 194 -142
235 -258 16 -46 18 -170 21 -1789 2 -1167 -1 -1762 -8 -1807 -22 -143 -101
-253 -228 -315 l-76 -38 -1780 -3 c-1934 -2 -1835 -5 -1937 52 -63 36 -145
125 -175 191 -14 30 -30 83 -35 118 -12 88 -12 3470 1 3537 30 159 143 282
300 326 36 10 422 12 1835 11 l1790 -2 57 -23z"/>
<path d="M1374 4025 c-133 -42 -242 -149 -282 -279 -19 -64 -21 -176 -2 -241
43 -154 175 -271 335 -297 281 -47 523 191 485 475 -22 154 -143 296 -296 342
-59 18 -183 18 -240 0z"/>
<path d="M3500 4027 c-204 -58 -327 -246 -300 -460 17 -141 110 -266 243 -328
67 -31 79 -33 177 -34 98 0 110 2 172 32 130 61 215 172 239 312 32 182 -69
374 -240 454 -56 27 -80 32 -156 34 -52 2 -109 -3 -135 -10z"/>
<path d="M1410 2980 c-67 -14 -144 -56 -205 -112 -131 -119 -169 -324 -91
-493 31 -69 123 -163 194 -199 80 -40 193 -53 279 -32 250 61 382 306 304 563
-28 94 -146 215 -247 252 -61 24 -173 33 -234 21z"/>
<path d="M3539 2980 c-143 -24 -283 -149 -326 -293 -20 -66 -20 -186 0 -254
32 -107 130 -219 232 -264 105 -47 242 -45 351 5 72 33 167 128 200 201 78
169 40 374 -91 493 -108 99 -227 135 -366 112z"/>
<path d="M1379 1905 c-207 -66 -332 -263 -299 -472 21 -135 114 -258 237 -315
117 -55 277 -48 387 16 66 39 135 114 168 183 101 214 10 464 -205 564 -61 28
-85 33 -157 36 -55 2 -101 -2 -131 -12z"/>
<path d="M3505 1906 c-118 -38 -224 -128 -272 -232 -106 -233 27 -516 274
-581 88 -23 205 -13 286 25 123 57 216 180 237 315 40 257 -160 489 -419 486
-36 0 -84 -6 -106 -13z"/>
</g>
</svg>
